<svg width="250" height="167" viewBox="0 0 250 167" fill="none" xmlns="http://www.w3.org/2000/svg">
<g clip-path="url(#clip0_2455_90240)">
<path d="M49.5634 115.575L25.0259 153.698H75.4253L50.8878 115.575C50.7831 115.412 50.5553 115.268 50.2253 115.268C49.8953 115.268 49.6678 115.412 49.5631 115.575H49.5634ZM166.558 108.889L137.073 153.698H198.129L168.645 108.889C168.463 108.614 168.09 108.402 167.601 108.402C167.112 108.402 166.739 108.614 166.558 108.889Z" fill="#E8EDFF" stroke="white" stroke-width="7.85714"/>
<path d="M43.2876 152.641V149.886" stroke="white" stroke-width="2.85714"/>
<path d="M34.7344 152.641V149.886" stroke="white" stroke-width="2.85714"/>
<path d="M39.0107 152.641V148.662" stroke="white" stroke-width="2.85714"/>
<path d="M85.6259 98.6946L49.4854 153.698H124.846L88.7056 98.6946C88.4134 98.2501 87.8473 97.9551 87.1656 97.9551C86.484 97.9551 85.9179 98.2501 85.6259 98.6946ZM193.369 110.567L163.884 155.376H224.94L195.456 110.567C195.274 110.292 194.901 110.081 194.412 110.081C193.923 110.081 193.55 110.292 193.369 110.567Z" fill="#E8EDFF" stroke="white" stroke-width="7.85714"/>
<path d="M190.751 154.001V151.246" stroke="white" stroke-width="2.85714"/>
<path d="M182.198 154.001V151.246" stroke="white" stroke-width="2.85714"/>
<path d="M186.475 154.001V150.022" stroke="white" stroke-width="2.85714"/>
<path d="M64.1411 152.641V149.886" stroke="white" stroke-width="2.85714"/>
<path d="M55.5879 152.641V149.886" stroke="white" stroke-width="2.85714"/>
<path d="M59.8643 152.641V148.662" stroke="white" stroke-width="2.85714"/>
<path d="M87.166 146.862L94.9274 151.882L102.59 146.862L94.9274 127.468L87.166 146.862Z" fill="#E8EDFF" stroke="white" stroke-width="7.85714"/>
<path d="M95.9639 141.841V155.229M90.8047 143.942L95.62 147.389" stroke="white" stroke-width="7.85714"/>
<path d="M108.02 146.862L115.781 151.882L123.444 146.862L115.781 127.468L108.02 146.862Z" fill="#E8EDFF" stroke="white" stroke-width="7.85714"/>
<path d="M116.817 141.841V155.229M111.658 143.942L116.473 147.389" stroke="white" stroke-width="7.85714"/>
<path d="M128.873 144.886L138.466 151.092L147.939 144.886L138.466 120.915L128.873 144.886Z" fill="#E8EDFF" stroke="white" stroke-width="7.85714"/>
<path d="M139.387 138.68V155.229M133.161 141.572L139.113 145.832" stroke="white" stroke-width="7.85714"/>
<path fill-rule="evenodd" clip-rule="evenodd" d="M82.6244 76.4246C87.1638 76.4246 85.0399 69.2041 79.2885 70.9286C78.9702 60.9031 62.6783 53.5676 55.9413 67.0899C54.0366 65.578 49.7597 68.4337 50.7069 70.9286C48.591 71.1096 46.9266 71.355 45.6316 71.6801C42.6413 72.4311 43.2333 76.3907 46.3155 76.3631L82.6244 76.4246Z" fill="#E8EDFF" stroke="white" stroke-width="7.85714"/>
<path fill-rule="evenodd" clip-rule="evenodd" d="M82.7488 51.0796H100.959C102.587 51.0796 103.289 48.9501 101.957 48.0057C101.938 47.9921 101.919 47.9787 101.9 47.9656C100.003 46.6486 97.5136 46.7683 97.5136 46.7683C97.5136 46.7683 97.1583 39.6421 90.4599 39.6421C84.4038 39.6421 81.9888 45.6463 81.1177 48.9543C80.8347 50.0289 81.648 51.0796 82.7488 51.0796Z" fill="#E8EDFF" stroke="white" stroke-width="2.85714"/>
<path fill-rule="evenodd" clip-rule="evenodd" d="M55.5292 50.1235H67.7565C68.8498 50.1235 69.3206 48.6845 68.4262 48.0466C68.4136 48.0373 68.4009 48.0283 68.3881 48.0193C67.1145 47.1295 65.4428 47.2102 65.4428 47.2102C65.4428 47.2102 65.2042 42.3953 60.7067 42.3953C56.6406 42.3953 55.019 46.4523 54.4342 48.6873C54.2442 49.4135 54.7901 50.1235 55.5292 50.1235ZM41.2356 34.8998H28.7484C27.6317 34.8998 27.1509 33.4611 28.0645 32.8229C28.0773 32.8137 28.0901 32.8045 28.1031 32.7959C29.404 31.9058 31.1112 31.9868 31.1112 31.9868C31.1112 31.9868 31.3548 27.1716 35.9481 27.1716C40.1006 27.1716 41.7567 31.2286 42.354 33.4639C42.5481 34.1901 41.9904 34.8998 41.2356 34.8998ZM28.1462 55.0367H40.6334C41.7498 55.0367 42.2309 53.5403 41.3173 52.8765C41.3044 52.867 41.2915 52.8576 41.2784 52.8484C39.9776 51.9229 38.2706 52.007 38.2706 52.007C38.2706 52.007 38.0267 46.9992 33.4337 46.9992C29.2809 46.9992 27.6248 51.2185 27.0276 53.5431C26.8337 54.2982 27.3912 55.0367 28.1462 55.0367ZM84.3445 30.9121H60.2987C58.352 30.9121 57.5123 28.4372 59.1059 27.3392L59.1734 27.293C61.442 25.7621 64.4195 25.9013 64.4195 25.9013C64.4195 25.9013 64.8448 17.6198 72.8553 17.6198C76.8156 17.6198 80.0165 24.2658 80.0165 24.2658C80.0165 24.2658 85.404 24.2658 86.2956 28.4416C86.5651 29.7067 85.6615 30.9121 84.3445 30.9121ZM158.784 52.316C162.132 52.316 160.565 46.975 156.323 48.2506C156.088 40.8347 144.072 35.4086 139.103 45.4111C137.698 44.2927 134.543 46.405 135.242 48.2506C133.681 48.3845 132.454 48.5662 131.499 48.8067C129.293 49.362 129.73 52.2909 132.003 52.2706L158.784 52.316ZM199.973 51.1464H218.183C219.812 51.1464 220.513 49.0172 219.181 48.0725C219.162 48.0591 219.143 48.0455 219.125 48.0324C217.227 46.7153 214.738 46.835 214.738 46.835C214.738 46.835 214.382 39.7088 207.684 39.7088C201.628 39.7088 199.213 45.7131 198.342 49.021C198.059 50.0957 198.872 51.1464 199.973 51.1464ZM146.92 30.3683H159.147C160.24 30.3683 160.711 28.9293 159.817 28.2911L159.779 28.2641C158.505 27.3742 156.833 27.4549 156.833 27.4549C156.833 27.4549 156.595 22.6401 152.097 22.6401C148.031 22.6401 146.41 26.697 145.825 28.9321C145.635 29.6582 146.181 30.3683 146.92 30.3683ZM179.491 42.424H167.004C165.887 42.424 165.406 40.9853 166.32 40.3471C166.333 40.3379 166.345 40.3287 166.358 40.3201C167.659 39.43 169.366 39.511 169.366 39.511C169.366 39.511 169.61 34.6958 174.203 34.6958C178.356 34.6958 180.012 38.7528 180.609 40.9881C180.803 41.7142 180.246 42.424 179.491 42.424ZM110.07 25.6569H122.558C123.674 25.6569 124.155 24.1606 123.241 23.497C123.229 23.4874 123.216 23.4779 123.203 23.4687C121.902 22.5432 120.195 22.6273 120.195 22.6273C120.195 22.6273 119.951 17.6198 115.358 17.6198C111.205 17.6198 109.549 21.839 108.952 24.1634C108.758 24.9185 109.316 25.6569 110.07 25.6569ZM206.486 28.8224H182.44C180.494 28.8224 179.654 26.3477 181.248 25.2497C181.27 25.2344 181.293 25.2185 181.315 25.2035C183.584 23.6727 186.561 23.8116 186.561 23.8116C186.561 23.8116 186.986 15.53 194.997 15.53C198.957 15.53 202.158 22.1764 202.158 22.1764C202.158 22.1764 207.546 22.1764 208.437 26.3522C208.707 27.6172 207.803 28.8224 206.486 28.8224Z" fill="#E8EDFF" stroke="white" stroke-width="7.85714"/>
<path d="M181.865 44.5896C179.149 56.4603 166.3 63.8831 152.93 60.8123C139.56 57.7414 131.22 45.4516 133.936 33.581C136.651 21.7101 149.501 14.2875 162.871 17.3583C176.241 20.4292 184.581 32.7187 181.865 44.5896Z" fill="#E8EDFF" stroke="white" stroke-width="7.85714"/>
<path d="M212.271 73.9154C211.573 76.9656 209.299 79.6707 205.435 81.8913C201.569 84.1132 196.246 85.7634 189.785 86.7242C176.87 88.6447 159.731 87.7647 141.459 83.5677C123.187 79.3707 107.376 72.6829 96.5862 65.3179C91.1871 61.6328 87.1132 57.8243 84.599 54.137C82.086 50.4516 81.2154 47.0242 81.9132 43.9742C82.611 40.9239 84.8846 38.2188 88.7485 35.9983C92.6146 33.7766 97.9371 32.1261 104.399 31.1653C117.313 29.2448 134.452 30.1252 152.725 34.3219C170.997 38.5189 186.808 45.2067 197.598 52.5716C202.997 56.257 207.07 60.0655 209.585 63.7526C212.098 67.438 212.968 70.8654 212.271 73.9154Z" fill="#E8EDFF" stroke="white" stroke-width="7.85714"/>
<path d="M189.037 68.5544C193.247 71.3101 197.61 72.0886 198.78 70.2931C199.951 68.4976 197.486 64.8081 193.275 62.0523C189.064 59.2965 184.702 58.518 183.531 60.3135C182.361 62.109 184.826 65.7986 189.037 68.5544Z" fill="white"/>
<path d="M163.607 55.6918C168.258 57.61 172.689 57.5574 173.503 55.5743C174.318 53.5912 171.208 50.4286 166.557 48.5104C161.907 46.5921 157.476 46.6447 156.661 48.6278C155.847 50.611 158.956 53.7736 163.607 55.6918Z" fill="white"/>
<path d="M142.171 75.2999C154.971 78.5035 166.451 76.6761 167.811 71.2182C169.172 65.7604 159.898 58.7389 147.098 55.5353C134.297 52.3318 122.818 54.1592 121.457 59.617C120.097 65.0749 129.37 72.0963 142.171 75.2999Z" fill="white"/>
<path d="M65.6499 155.429L121.872 58.5898C151.494 55.4847 164.587 66.4819 167.43 72.3684L155.992 155.429H65.6499Z" fill="#4A72FF"/>
<path d="M112.633 121.347H114.56V124.739H112.633V128.771H108.245V124.739H100.914L100.654 122.051L108.245 109.813V109.774H112.633V121.347ZM104.833 121.347H108.245V115.502L107.971 115.946L104.833 121.347ZM129.651 121.008C129.651 123.574 129.074 125.552 127.919 126.944C126.774 128.336 125.155 129.031 123.062 129.031C120.953 129.031 119.321 128.331 118.167 126.931C117.012 125.531 116.435 123.556 116.435 121.008V117.537C116.435 114.971 117.008 112.992 118.154 111.601C119.308 110.209 120.936 109.513 123.037 109.513C125.137 109.513 126.765 110.214 127.919 111.614C129.074 113.014 129.651 114.993 129.651 117.55V121.008ZM125.263 116.976C125.263 115.61 125.085 114.593 124.729 113.923C124.373 113.245 123.809 112.906 123.037 112.906C122.281 112.906 121.73 113.219 121.383 113.845C121.044 114.471 120.862 115.419 120.836 116.689V121.543C120.836 122.96 121.014 124 121.37 124.661C121.726 125.313 122.29 125.639 123.062 125.639C123.809 125.639 124.36 125.322 124.716 124.687C125.072 124.043 125.254 123.039 125.263 121.673V116.976ZM143.518 121.347H145.445V124.739H143.518V128.771H139.13V124.739H131.8L131.539 122.051L139.13 109.813V109.774H143.518V121.347ZM135.719 121.347H139.13V115.502L138.857 115.946L135.719 121.347Z" fill="#E8EDFF"/>
<path d="M138.34 48.1661C143.302 48.9898 147.608 47.9424 147.958 45.8267C148.307 43.711 144.569 41.3282 139.607 40.5045C134.645 39.6808 130.339 40.7282 129.989 42.8439C129.639 44.9596 133.378 47.3424 138.34 48.1661Z" fill="white"/>
<path d="M113.362 45.1052C118.383 45.4038 122.555 43.9105 122.682 41.7697C122.809 39.6289 118.842 37.6514 113.821 37.3528C108.8 37.0542 104.628 38.5476 104.501 40.6883C104.374 42.8291 108.341 44.8066 113.362 45.1052Z" fill="white"/>
</g>
<defs>
<clipPath id="clip0_2455_90240">
<rect width="250" height="167" fill="white"/>
</clipPath>
</defs>
</svg>
